<?xml version="1.0" encoding="UTF-8" standalone="no"?>
<svg xmlns="http://www.w3.org/2000/svg" xmlns:svg="http://www.w3.org/2000/svg" xmlns:rdf="http://www.w3.org/1999/02/22-rdf-syntax-ns#" xmlns:cc="http://creativecommons.org/ns#" xmlns:dc="http://purl.org/dc/elements/1.1/" id="Layer_1" viewBox="0 0 796.00997 115.35" width="796.01001" height="115.35">
  <defs id="defs4">
    <style id="style2">.cls-1{fill:#86888a;}.cls-2{fill:#fff;}.cls-3{fill:#ff8000;}</style>
  </defs>
  <path class="cls-3" d="M 31.83,92.98 C 21.19,92.98 9.59,90.15 0.29,86.37 l 2.7,-9.56 c 8.76,3.64 19.27,6.33 28.84,6.33 12.67,0 21,-4.59 21,-14.56 0,-9.97 -7.68,-14.15 -23.32,-18.06 C 9.83,45.67 0,38.52 0,24.52 0,7.52 12.13,0 32.35,0 43.81,0 52.97,2.15 61.2,5.93 L 58.91,15.5 A 68.9,68.9 0 0 0 32.49,9.7 c -13.2,0 -20.89,3.51 -20.89,14.16 0,10.11 7,12.4 22.51,16.72 16.31,4.59 30.33,10.24 30.33,26.82 0.01,16 -12.4,25.58 -32.61,25.58 z" id="path16" style="fill:#fa6400;fill-opacity:1"/>
  <path class="cls-3" d="m 85.48,26.94 v 42.05 c 0,8.76 3.91,13.75 12.54,13.75 10,0 17.39,-8 17.39,-21.3 v -34.5 h 11.6 V 91.37 H 115.67 V 78.29 c -3.5,8.22 -10.65,14.42 -21.56,14.42 -14,0 -20.22,-8.36 -20.22,-21.84 V 26.94 Z" id="path18" style="fill:#fa6400;fill-opacity:1"/>
  <path class="cls-3" d="m 151.99,79.09 v 36.26 h -11.6 V 26.94 h 11.19 v 12.4 c 3.91,-8.36 11.32,-13.75 21.84,-13.75 17.79,0 25.47,14.83 25.47,33.57 0,18.74 -7.64,33.55 -25.64,33.55 -10.34,0 -17.35,-5.39 -21.26,-13.62 z M 187.3,59.15 c 0,-14.16 -4.72,-24.27 -17,-24.27 -12.28,0 -18.33,11.06 -18.33,24.27 0,13.21 5.93,24.25 18.33,24.25 12.4,0 17,-10.1 17,-24.25 z" id="path20" style="fill:#fa6400;fill-opacity:1"/>
  <path class="cls-3" d="m 219.25,63.18 c 0.81,13.08 6.33,20.89 21.3,20.89 a 50.23,50.23 0 0 0 19.7,-4.44 l 1.89,8.09 a 53.2,53.2 0 0 1 -23.19,5 c -21.56,0 -31.4,-13.89 -31.4,-33.56 0,-19.67 9.81,-33.61 29.62,-33.61 18.61,0 25.75,12.67 25.75,30.47 v 7.14 z m 0,-8.48 h 32.62 v -1.62 c 0,-11.18 -3.91,-19.28 -14.83,-19.28 -11.18,0.01 -16.84,7.02 -17.79,20.9 z" id="path22" style="fill:#fa6400;fill-opacity:1"/>
  <path class="cls-3" d="m 305.25,36.9 c -12,0 -17.79,9.57 -17.79,22.25 V 91.36 H 275.74 V 26.94 h 11.46 v 14 c 2.42,-8.49 7.68,-14.69 17.92,-14.69 a 20.09,20.09 0 0 1 5.8,0.68 v 10.38 a 37.5,37.5 0 0 0 -5.67,-0.41 z" id="path24" style="fill:#fa6400;fill-opacity:1"/>
  <path class="cls-3" d="m 342.66,1.55 h 11.86 v 79.53 h 43.13 v 10.24 h -55 z" id="path26" style="fill:#fa6400;fill-opacity:1"/>
  <path class="cls-3" d="M 446.59,91.36 V 80.45 c -4.45,7.8 -12.27,12.27 -22.51,12.27 -12.67,0 -20.09,-7.42 -20.09,-19 0,-13.62 9.3,-19.94 22.66,-19.94 h 19.4 v -5.94 c 0,-8.62 -5,-12.4 -15.36,-12.4 a 48.28,48.28 0 0 0 -20.22,4.45 l -2,-9.16 a 56,56 0 0 1 23.7,-5.18 c 16.71,0 25.47,6.88 25.47,21.43 V 91.33 Z M 446.05,62.1 h -17.8 c -8.9,0 -13.07,3.91 -13.07,11.46 0,7.29 4.45,10.92 12.26,10.92 a 18.24,18.24 0 0 0 18.6,-18.33 z" id="path28" style="fill:#fa6400;fill-opacity:1"/>
  <path class="cls-3" d="m 529.35,78.29 13.48,-51.36 h 11.32 l -19,64.43 H 523.69 L 508.19,37.72 492.56,91.36 H 481.1 L 462.25,26.94 h 11.19 l 13.62,51.36 14.83,-51.36 h 12.54 z" id="path30" style="fill:#fa6400;fill-opacity:1"/>
  <path class="cls-3" d="m 603.49,26.94 h 12 l -30.24,88.41 h -11.6 l 8,-23.71 -22.91,-64.7 h 12 l 16.58,52.29 z" id="path32" style="fill:#fa6400;fill-opacity:1"/>
  <path class="cls-3" d="m 628.42,63.18 c 0.81,13.08 6.34,20.89 21.3,20.89 a 50.2,50.2 0 0 0 19.68,-4.45 l 1.89,8.09 a 53.16,53.16 0 0 1 -23.18,5 c -21.57,0 -31.41,-13.89 -31.41,-33.56 0,-19.67 9.84,-33.6 29.65,-33.6 18.6,0 25.74,12.67 25.74,30.47 v 7.14 z m 0,-8.48 h 32.63 v -1.62 c 0,-11.18 -3.91,-19.28 -14.83,-19.28 -11.19,0.01 -16.85,7.02 -17.8,20.9 z" id="path34" style="fill:#fa6400;fill-opacity:1"/>
  <path class="cls-3" d="m 714.43,36.9 c -12,0 -17.79,9.57 -17.79,22.25 V 91.36 H 684.91 V 26.94 h 11.46 v 14 c 2.42,-8.49 7.68,-14.69 17.93,-14.69 a 20.09,20.09 0 0 1 5.79,0.68 v 10.38 a 37.54,37.54 0 0 0 -5.66,-0.41 z" id="path36" style="fill:#fa6400;fill-opacity:1"/>
  <path class="cls-3" d="m 749.33,92.71 a 66.4,66.4 0 0 1 -23.45,-4.86 l 2.56,-8.5 c 6.73,2.7 13.75,4.59 20.75,4.59 8.49,0 12.94,-3.23 12.94,-9.43 0,-5.66 -3.64,-7.82 -13.48,-10.51 -16.58,-4.59 -23.05,-9.7 -23.05,-19.81 0,-12.8 8.89,-18.61 24,-18.61 a 52.54,52.54 0 0 1 21.84,4.45 l -2.16,8.35 a 53.51,53.51 0 0 0 -19.41,-4 c -8.22,0 -12.94,2.15 -12.94,8.49 0,6.34 4.58,7.68 15.23,10.92 12.13,3.63 21.3,7.81 21.3,19 0,12.64 -9.3,19.92 -24.13,19.92 z" id="path38" style="fill:#fa6400;fill-opacity:1"/>
  <path class="cls-3" d="m 786.95,24.9 a 9.16,9.16 0 1 1 -9.26,9.14 9,9 0 0 1 9.26,-9.14 z m 0,17.14 a 8,8 0 1 0 -7.91,-8 7.7,7.7 0 0 0 7.91,8 z m 1.72,-7.41 2.86,3.75 h -2.1 l -2.62,-3.53 h -1.09 v 3.53 h -1.77 V 29.2 h 3.41 c 1.94,0 3.2,1 3.2,2.7 a 2.73,2.73 0 0 1 -1.89,2.73 z m -1.42,-4 h -1.51 v 2.86 h 1.47 a 1.42,1.42 0 0 0 1.61,-1.47 c -0.01,-0.92 -0.57,-1.39 -1.57,-1.39 z" id="path40" style="fill:#fa6400;fill-opacity:1"/>
</svg>
